# xmcd
#
# Track frame offsets:
#	150
#	21176
#	35812
#	47105
#	60195
#	71634
#	87622
#	106831
#	117901
#	130432
#
# Disc length: 1892 seconds
#
# Revision: 0
# Processed by: cddbd v1.5.2PL0 Copyright (c) Steve Scherf et al.
# Submitted via: dBpowerAMP V4.0
#
DISCID=8b07620a
DTITLE=Marty Robbins - American Music Legends
DYEAR=2007
DGENRE=Country
TTITLE0=El Paso
TTITLE1=Don't Worry
TTITLE2=A White Sports Coat (And A Pink Carnation)
TTITLE3=Devil Woman
TTITLE4=Ribbon Of Darkness
TTITLE5=My Woman, My Woman, My Wife
TTITLE6=El Paso City
TTITLE7=Singing The Blues
TTITLE8=Tonight Carmen
TTITLE9=The Story Of My Life
EXTD=
EXTT0=
EXTT1=
EXTT2=
EXTT3=
EXTT4=
EXTT5=
EXTT6=
EXTT7=
EXTT8=
EXTT9=
PLAYORDER=
